<!DOCTYPE svg PUBLIC "-//W3C//DTD SVG 1.1//EN" "http://www.w3.org/Graphics/SVG/1.1/DTD/svg11.dtd">
<!-- Uploaded to: SVG Repo, www.svgrepo.com, Transformed by: SVG Repo Mixer Tools -->
<svg fill="#000000" height="800px" width="800px" version="1.1" id="Layer_1" xmlns="http://www.w3.org/2000/svg" xmlns:xlink="http://www.w3.org/1999/xlink" viewBox="-51.2 -51.2 614.40 614.40" xml:space="preserve">
<g id="SVGRepo_bgCarrier" stroke-width="0">
<rect x="-51.2" y="-51.2" width="614.40" height="614.40" rx="307.2" fill="#00ff64" strokewidth="0"/>
</g>
<g id="SVGRepo_tracerCarrier" stroke-linecap="round" stroke-linejoin="round"/>
<g id="SVGRepo_iconCarrier"> <g> <g> <path d="M502.12,323.335l-105.815-67.333l105.815-67.337c13.173-8.383,13.173-27.613,0-35.996L267.453,3.335 c-6.988-4.447-15.919-4.447-22.907,0L9.88,152.669c-13.173,8.383-13.173,27.613,0,35.996l105.815,67.337L9.88,323.335 c-13.174,8.383-13.174,27.613,0,35.997l234.667,149.333c6.988,4.447,15.919,4.447,22.907,0L502.12,359.331 C515.294,350.948,515.293,331.718,502.12,323.335z M256,46.62l194.931,124.047L345.19,237.956 c-0.026,0.016-0.053,0.03-0.078,0.046L256,294.713l-89.112-56.711c-0.026-0.016-0.053-0.03-0.078-0.046L61.069,170.667L256,46.62z M256,465.38L61.07,341.334l94.361-60.045l88.971,56.618l0.144,0.091c0,0,0,0,0,0l0,0c0.323,0.205,0.654,0.391,0.985,0.578 c0.117,0.066,0.229,0.14,0.347,0.204c0.873,0.471,1.771,0.873,2.687,1.214c0.031,0.011,0.061,0.026,0.091,0.037 c0.257,0.094,0.519,0.171,0.779,0.255c0.221,0.072,0.441,0.152,0.664,0.216c0.755,0.217,1.521,0.379,2.291,0.512 c2.39,0.41,4.831,0.41,7.221,0c0.77-0.132,1.536-0.294,2.291-0.512c0.223-0.064,0.442-0.145,0.664-0.216 c0.26-0.084,0.521-0.16,0.779-0.255c0.031-0.011,0.061-0.026,0.091-0.037c0.916-0.341,1.814-0.743,2.687-1.214 c0.118-0.063,0.23-0.138,0.347-0.204c0.331-0.186,0.662-0.372,0.985-0.578l0,0c0,0,0,0,0,0l0.145-0.092l88.97-56.617 l94.361,60.045L256,465.38z"/> </g> </g> </g>
</svg>